<svg xmlns="http://www.w3.org/2000/svg" xmlns:xlink="http://www.w3.org/1999/xlink" viewBox="0 0 494.39 190.24"><defs><style>.cls-1{fill:none;}.cls-2{isolation:isolate;}.cls-3{mix-blend-mode:multiply;}.cls-4{clip-path:url(#clip-path);}.cls-5{fill:#00adee;}.cls-6{clip-path:url(#clip-path-2);}.cls-7{fill:#ed1c4e;}.cls-8{clip-path:url(#clip-path-3);}.cls-9{fill:#ffd800;}</style><clipPath id="clip-path" transform="translate(-7.81 -9.88)"><rect class="cls-1" x="19.94" y="18.52" width="482.25" height="181.6"/></clipPath><clipPath id="clip-path-2" transform="translate(-7.81 -9.88)"><rect class="cls-1" x="7.81" y="9.88" width="482.25" height="181.6"/></clipPath><clipPath id="clip-path-3" transform="translate(-7.81 -9.88)"><rect class="cls-1" x="7.81" y="18.52" width="482.25" height="181.6"/></clipPath></defs><title>logo</title><g class="cls-2"><g id="Layer_1" data-name="Layer 1"><g class="cls-3"><g class="cls-4"><polygon class="cls-5" points="112.36 190.24 112.36 90.02 93.51 90.02 93.51 110.07 72.27 110.07 72.27 90.02 53.43 90.02 53.43 190.24 12.14 190.24 12.14 8.64 33.38 8.64 33.38 28.69 53.43 28.69 53.43 48.73 73.47 48.73 73.47 68.78 92.31 68.78 92.31 48.73 112.36 48.73 112.36 28.69 132.4 28.69 132.4 8.64 153.65 8.64 153.65 190.24 112.36 190.24"/><polygon class="cls-5" points="253.86 170.2 253.86 190.24 192.53 190.24 192.53 170.2 172.49 170.2 172.49 8.64 213.78 8.64 213.78 169 232.62 169 232.62 8.64 273.91 8.64 273.91 170.2 253.86 170.2"/><polygon class="cls-5" points="354.08 170.2 354.08 190.24 292.75 190.24 292.75 169 332.83 169 332.83 110.07 312.79 110.07 312.79 90.02 292.75 90.02 292.75 28.69 312.79 28.69 312.79 8.64 374.12 8.64 374.12 29.89 334.04 29.89 334.04 68.78 354.08 68.78 354.08 88.82 374.12 88.82 374.12 170.2 354.08 170.2"/><path class="cls-5" d="M460.9,200.12V140H442.06v60.13H400.77V38.57h20.05v-20h61.33V38.57h20V200.12Zm0-160.35H442.06v79H460.9Z" transform="translate(-7.81 -9.88)"/></g></g><g class="cls-3"><g class="cls-6"><polygon class="cls-7" points="100.22 181.6 100.22 81.38 81.38 81.38 81.38 101.42 60.13 101.42 60.13 81.38 41.29 81.38 41.29 181.6 0 181.6 0 0 21.25 0 21.25 20.04 41.29 20.04 41.29 40.09 61.34 40.09 61.34 60.13 80.18 60.13 80.18 40.09 100.22 40.09 100.22 20.04 120.26 20.04 120.26 0 141.51 0 141.51 181.6 100.22 181.6"/><polygon class="cls-7" points="241.73 161.55 241.73 181.6 180.39 181.6 180.39 161.55 160.35 161.55 160.35 0 201.64 0 201.64 160.35 220.48 160.35 220.48 0 261.77 0 261.77 161.55 241.73 161.55"/><polygon class="cls-7" points="341.94 161.55 341.94 181.6 280.61 181.6 280.61 160.35 320.7 160.35 320.7 101.42 300.65 101.42 300.65 81.38 280.61 81.38 280.61 20.04 300.65 20.04 300.65 0 361.99 0 361.99 21.25 321.9 21.25 321.9 60.13 341.94 60.13 341.94 80.18 361.99 80.18 361.99 161.55 341.94 161.55"/><path class="cls-7" d="M448.77,191.48V131.35H429.93v60.13H388.64V29.92h20v-20H470v20h20.05V191.48Zm0-160.35H429.93v79h18.84Z" transform="translate(-7.81 -9.88)"/></g></g><g class="cls-3"><g class="cls-8"><polygon class="cls-9" points="100.22 190.24 100.22 90.02 81.38 90.02 81.38 110.07 60.13 110.07 60.13 90.02 41.29 90.02 41.29 190.24 0 190.24 0 8.64 21.25 8.64 21.25 28.69 41.29 28.69 41.29 48.73 61.34 48.73 61.34 68.78 80.18 68.78 80.18 48.73 100.22 48.73 100.22 28.69 120.26 28.69 120.26 8.64 141.51 8.64 141.51 190.24 100.22 190.24"/><polygon class="cls-9" points="241.73 170.2 241.73 190.24 180.39 190.24 180.39 170.2 160.35 170.2 160.35 8.64 201.64 8.64 201.64 169 220.48 169 220.48 8.64 261.77 8.64 261.77 170.2 241.73 170.2"/><polygon class="cls-9" points="341.94 170.2 341.94 190.24 280.61 190.24 280.61 169 320.7 169 320.7 110.07 300.65 110.07 300.65 90.02 280.61 90.02 280.61 28.69 300.65 28.69 300.65 8.64 361.99 8.64 361.99 29.89 321.9 29.89 321.9 68.78 341.94 68.78 341.94 88.82 361.99 88.82 361.99 170.2 341.94 170.2"/><path class="cls-9" d="M448.77,200.12V140H429.93v60.13H388.64V38.57h20v-20H470V38.57h20.05V200.12Zm0-160.35H429.93v79h18.84Z" transform="translate(-7.81 -9.88)"/></g></g></g></g></svg>